<svg width="1440" height="282" viewBox="0 0 1440 282" fill="none" xmlns="http://www.w3.org/2000/svg">
<g clip-path="url(#clip0_774_51512)">
<path d="M876.568 165.369C909.818 157.177 943.611 151.378 977.689 148.016C1005.02 145.266 1032.47 143.892 1059.94 143.899C1129.44 143.73 1198.65 152.734 1265.79 170.678C1333.87 189.078 1393.04 198.414 1441.65 198.414C1508.93 198.414 1538.98 180.591 1550.16 171.147H1589.04V144.621H1545.05L1538.6 144.477L1534.7 149.46C1533.73 150.49 1521.7 162.317 1487.66 168.33C1472.66 170.848 1457.47 172.056 1442.27 171.942C1395.66 171.942 1338.69 162.913 1272.89 145.127C1203.45 126.561 1131.87 117.247 1059.99 117.427C1031.65 117.416 1003.32 118.838 975.125 121.688C941.963 124.953 909.056 130.425 876.623 138.066L876.568 165.369Z" fill="#272727"/>
<path d="M876.568 158.579C909.634 150.527 943.225 144.813 977.093 141.479C1045.37 134.527 1151.2 132.847 1267.69 164.339C1472.8 219.775 1535.46 176.185 1547.79 164.574H1582.55V151.266H1544.98H1541.8L1539.79 153.812C1539.67 153.956 1527.57 168.095 1488.82 174.957C1452.7 181.349 1385.53 182.487 1271.16 151.573C1202.28 133.156 1131.29 123.891 1059.99 124.017C1031.86 124.012 1003.74 125.422 975.739 128.243C942.346 131.533 909.213 137.077 876.568 144.837V158.579Z" fill="white"/>
<path d="M1267.69 164.339C1472.8 219.775 1535.46 176.184 1547.79 164.574H1582.55V160.402H1547.79C1535.46 172.031 1472.8 215.622 1267.69 160.186C1151.2 128.694 1045.37 130.373 977.093 137.325C943.225 140.66 909.634 146.374 876.568 154.425V158.579C909.634 150.527 943.225 144.813 977.093 141.478C1045.37 134.526 1151.2 132.865 1267.69 164.339Z" fill="#BCBEC0"/>
<path d="M598.649 165.369C565.399 157.181 531.606 151.382 497.528 148.016C470.191 145.267 442.734 143.893 415.259 143.899C345.679 143.745 276.383 152.785 209.171 170.786C141.096 189.186 81.9218 198.522 33.3117 198.522C-33.9697 198.522 -64.017 180.7 -75.1945 171.256H-114.054V144.621H-69.8495L-63.4031 144.477L-59.5027 149.46C-58.5095 150.49 -46.5015 162.317 -12.4635 168.33C2.54135 170.847 17.7365 172.055 32.9505 171.942C79.5383 171.942 136.527 162.913 202.31 145.127C271.746 126.562 343.33 117.248 415.205 117.427C443.548 117.416 471.874 118.839 500.074 121.688C533.235 124.956 566.142 130.428 598.576 138.066L598.649 165.369Z" fill="#272727"/>
<path d="M598.649 158.579C565.571 150.529 531.967 144.815 498.088 141.479C429.795 134.527 323.961 132.847 207.474 164.339C2.39761 219.775 -60.2611 176.203 -72.522 164.574H-107.354V151.266H-69.7773H-66.5812L-64.5949 153.812C-64.4685 153.956 -52.352 168.095 -13.6192 174.957C22.4953 181.349 89.6684 182.487 204.043 151.573C272.915 133.156 343.913 123.891 415.205 124.017C443.343 124.012 471.464 125.422 499.46 128.243C532.859 131.535 565.997 137.079 598.649 144.837V158.579Z" fill="white"/>
<path d="M207.51 164.339C2.39758 219.775 -60.2611 176.202 -72.522 164.574H-107.354V160.402H-72.522C-60.1889 172.031 2.46983 215.622 207.582 160.186C323.998 128.694 429.831 130.373 498.088 137.325C531.955 140.663 565.546 146.377 598.613 154.425V158.579C565.546 150.53 531.955 144.816 498.088 141.478C429.831 134.526 323.998 132.865 207.51 164.339Z" fill="#BCBEC0"/>
<path d="M803.345 171.562C803.345 169.719 802.613 167.95 801.309 166.647C800.005 165.343 798.237 164.61 796.393 164.61H738.249C736.405 164.61 734.637 165.343 733.333 166.647C732.029 167.95 731.297 169.719 731.297 171.562C731.297 173.406 732.029 175.174 733.333 176.478C734.637 177.782 736.405 178.514 738.249 178.514H796.393C798.237 178.514 800.005 177.782 801.309 176.478C802.613 175.174 803.345 173.406 803.345 171.562Z" fill="#BCBEC0"/>
<path d="M738.249 171.562H796.393C797.606 171.561 798.798 171.24 799.847 170.631C800.897 170.022 801.767 169.148 802.37 168.095C803.007 169.14 803.344 170.339 803.345 171.562C803.345 173.406 802.613 175.174 801.309 176.478C800.005 177.782 798.237 178.514 796.393 178.514H738.249C736.405 178.514 734.637 177.782 733.333 176.478C732.029 175.174 731.297 173.406 731.297 171.562C731.307 170.34 731.643 169.143 732.272 168.095C732.875 169.148 733.746 170.022 734.795 170.631C735.844 171.24 737.036 171.561 738.249 171.562Z" fill="#F1F2F2"/>
<path d="M806.686 171.562C806.686 174.294 805.603 176.913 803.673 178.847C801.743 180.78 799.125 181.868 796.394 181.873H738.249C735.592 181.762 733.08 180.628 731.239 178.708C729.398 176.788 728.37 174.231 728.37 171.571C728.37 168.911 729.398 166.354 731.239 164.435C733.08 162.515 735.592 161.381 738.249 161.27H796.394C799.122 161.274 801.737 162.36 803.667 164.289C805.596 166.219 806.682 168.834 806.686 171.562ZM796.394 175.174C797.352 175.174 798.27 174.793 798.947 174.116C799.625 173.439 800.005 172.52 800.005 171.562C800.005 170.604 799.625 169.686 798.947 169.009C798.27 168.331 797.352 167.951 796.394 167.951H738.249C737.292 167.951 736.373 168.331 735.696 169.009C735.018 169.686 734.638 170.604 734.638 171.562C734.638 172.52 735.018 173.439 735.696 174.116C736.373 174.793 737.292 175.174 738.249 175.174H796.394Z" fill="#272727"/>
<path d="M803.345 109.391C803.345 107.547 802.613 105.778 801.309 104.475C800.005 103.171 798.237 102.438 796.393 102.438H738.249C736.405 102.438 734.637 103.171 733.333 104.475C732.029 105.778 731.297 107.547 731.297 109.391C731.297 111.234 732.029 113.003 733.333 114.306C734.637 115.61 736.405 116.343 738.249 116.343H796.393C798.237 116.343 800.005 115.61 801.309 114.306C802.613 113.003 803.345 111.234 803.345 109.391Z" fill="#BCBEC0"/>
<path d="M738.249 109.391H796.394C797.607 109.39 798.798 109.068 799.848 108.46C800.897 107.851 801.767 106.976 802.371 105.924C803.004 106.97 803.342 108.168 803.346 109.391C803.346 111.235 802.613 113.003 801.31 114.307C800.006 115.61 798.238 116.343 796.394 116.343H738.249C737.025 116.357 735.82 116.044 734.757 115.436C733.695 114.829 732.813 113.949 732.204 112.887C731.595 111.825 731.28 110.62 731.292 109.396C731.304 108.172 731.643 106.973 732.272 105.924C732.876 106.976 733.746 107.851 734.796 108.46C735.845 109.068 737.036 109.39 738.249 109.391Z" fill="#F1F2F2"/>
<path d="M806.686 109.39C806.686 112.122 805.603 114.742 803.673 116.675C801.743 118.608 799.125 119.696 796.394 119.701H738.249C735.592 119.59 733.08 118.456 731.239 116.536C729.398 114.616 728.37 112.059 728.37 109.399C728.37 106.739 729.398 104.182 731.239 102.263C733.08 100.343 735.592 99.2089 738.249 99.0977H796.394C799.124 99.0977 801.742 100.182 803.672 102.112C805.602 104.043 806.686 106.661 806.686 109.39ZM796.394 113.002C797.352 113.002 798.27 112.621 798.947 111.944C799.625 111.267 800.005 110.348 800.005 109.39C800.005 108.432 799.625 107.514 798.947 106.837C798.27 106.159 797.352 105.779 796.394 105.779H738.249C737.292 105.779 736.373 106.159 735.696 106.837C735.018 107.514 734.638 108.432 734.638 109.39C734.638 110.348 735.018 111.267 735.696 111.944C736.373 112.621 737.292 113.002 738.249 113.002H796.394Z" fill="#272727"/>
<path d="M924.709 155.166H868.731V125.787H924.709C926.449 125.785 928.172 126.125 929.78 126.789C931.388 127.454 932.849 128.428 934.08 129.657C935.311 130.887 936.287 132.347 936.954 133.954C937.62 135.561 937.963 137.283 937.963 139.023V141.894C937.965 143.636 937.624 145.362 936.959 146.972C936.294 148.582 935.318 150.045 934.087 151.278C932.856 152.511 931.395 153.488 929.785 154.156C928.176 154.823 926.451 155.166 924.709 155.166Z" fill="#F1F2F2"/>
<path d="M924.709 155.166H868.731V146.137H918.335C921.831 146.104 925.173 144.69 927.631 142.204C930.09 139.718 931.467 136.361 931.462 132.865V129.976C931.461 129.133 931.376 128.292 931.21 127.466C933.244 128.619 934.936 130.291 936.113 132.312C937.29 134.333 937.91 136.63 937.909 138.968V141.894C937.914 145.403 936.527 148.77 934.052 151.258C931.578 153.746 928.218 155.151 924.709 155.166Z" fill="#BCBEC0"/>
<path d="M941.304 139.022V141.893C941.299 146.293 939.549 150.511 936.438 153.622C933.327 156.733 929.109 158.483 924.709 158.488H868.731C867.845 158.488 866.996 158.136 866.369 157.51C865.743 156.883 865.391 156.033 865.391 155.147V125.786C865.388 125.346 865.473 124.91 865.64 124.502C865.807 124.095 866.052 123.725 866.363 123.413C866.673 123.1 867.042 122.853 867.449 122.684C867.855 122.515 868.291 122.428 868.731 122.428H924.709C929.109 122.433 933.327 124.182 936.438 127.293C939.549 130.405 941.299 134.623 941.304 139.022ZM872 151.807H924.709C927.335 151.807 929.854 150.765 931.712 148.91C933.571 147.055 934.618 144.538 934.622 141.912V139.022C934.618 136.396 933.571 133.879 931.712 132.024C929.854 130.169 927.335 129.127 924.709 129.127H872V151.807Z" fill="#272727"/>
<path d="M844.282 200.869H787.113C783.445 200.869 779.926 199.411 777.332 196.817C774.738 194.223 773.281 190.705 773.281 187.037V93.8973C773.281 90.2289 774.738 86.7107 777.332 84.1167C779.926 81.5227 783.445 80.0654 787.113 80.0654H844.282V200.869Z" fill="#F1F2F2"/>
<path d="M846.701 80.0654H826.621V200.869H846.701V80.0654Z" fill="#BCBEC0"/>
<path d="M847.621 80.0667V200.87C847.621 201.756 847.269 202.605 846.643 203.232C846.016 203.858 845.167 204.21 844.281 204.21H787.111C782.557 204.206 778.19 202.395 774.968 199.176C771.745 195.958 769.93 191.593 769.921 187.038V93.8985C769.93 89.3439 771.745 84.9788 774.968 81.7599C778.19 78.541 782.557 76.7308 787.111 76.7261H844.281C845.167 76.7261 846.016 77.078 846.643 77.7045C847.269 78.331 847.621 79.1807 847.621 80.0667ZM840.922 197.529V83.4253H787.111C784.332 83.4253 781.666 84.5282 779.699 86.4918C777.732 88.4553 776.625 91.1192 776.62 93.8985V187.038C776.62 188.416 776.892 189.78 777.419 191.053C777.946 192.326 778.719 193.482 779.693 194.456C780.667 195.431 781.824 196.203 783.097 196.731C784.369 197.258 785.734 197.529 787.111 197.529H840.922Z" fill="#272727"/>
<path d="M856.831 86.5669C856.904 83.8124 855.883 81.1412 853.991 79.1378C852.1 77.1344 849.491 75.9619 846.737 75.877C843.985 75.9619 841.378 77.135 839.489 79.1389C837.601 81.1429 836.584 83.8141 836.661 86.5669V194.369C836.584 197.121 837.601 199.793 839.489 201.797C841.378 203.801 843.985 204.974 846.737 205.059C849.491 204.974 852.1 203.801 853.991 201.798C855.883 199.794 856.904 197.123 856.831 194.369V86.5669Z" fill="#F1F2F2"/>
<path d="M846.736 205.094C844.955 205.096 843.208 204.595 841.698 203.65C843.255 202.664 844.534 201.298 845.416 199.68C846.297 198.062 846.752 196.247 846.736 194.404V86.6025C846.752 84.7602 846.297 82.9444 845.416 81.3267C844.534 79.709 843.255 78.3427 841.698 77.3572C843.208 76.4118 844.955 75.9111 846.736 75.9126C849.49 75.9976 852.099 77.1701 853.99 79.1735C855.882 81.1769 856.903 83.8481 856.83 86.6025V194.404C856.903 197.159 855.882 199.83 853.99 201.833C852.099 203.837 849.49 205.009 846.736 205.094Z" fill="#BCBEC0"/>
<path d="M860.172 86.5662V194.368C860.238 196.173 859.94 197.972 859.295 199.659C858.65 201.345 857.672 202.885 856.418 204.185C855.165 205.485 853.663 206.519 852.001 207.225C850.339 207.931 848.552 208.295 846.746 208.295C844.94 208.295 843.153 207.931 841.491 207.225C839.829 206.519 838.327 205.485 837.074 204.185C835.821 202.885 834.842 201.345 834.198 199.659C833.553 197.972 833.254 196.173 833.321 194.368V86.5662C833.254 84.7617 833.553 82.9624 834.198 81.2758C834.842 79.5891 835.821 78.0498 837.074 76.7498C838.327 75.4498 839.829 74.4157 841.491 73.7095C843.153 73.0032 844.94 72.6392 846.746 72.6392C848.552 72.6392 850.339 73.0032 852.001 73.7095C853.663 74.4157 855.165 75.4498 856.418 76.7498C857.672 78.0498 858.65 79.5891 859.295 81.2758C859.94 82.9624 860.238 84.7617 860.172 86.5662ZM853.472 194.368V86.5662C853.556 85.6322 853.445 84.6909 853.145 83.8023C852.845 82.9138 852.363 82.0974 851.731 81.4052C851.098 80.7131 850.328 80.1603 849.47 79.7821C848.611 79.4039 847.684 79.2086 846.746 79.2086C845.808 79.2086 844.881 79.4039 844.023 79.7821C843.164 80.1603 842.394 80.7131 841.762 81.4052C841.129 82.0974 840.647 82.9138 840.347 83.8023C840.047 84.6909 839.936 85.6322 840.02 86.5662V194.368C839.936 195.302 840.047 196.243 840.347 197.132C840.647 198.021 841.129 198.837 841.762 199.529C842.394 200.221 843.164 200.774 844.023 201.152C844.881 201.53 845.808 201.726 846.746 201.726C847.684 201.726 848.611 201.53 849.47 201.152C850.328 200.774 851.098 200.221 851.731 199.529C852.363 198.837 852.845 198.021 853.145 197.132C853.445 196.243 853.556 195.302 853.472 194.368Z" fill="#272727"/>
<path d="M876.73 177.665H856.867V103.27H876.73C879.632 103.27 882.416 104.422 884.468 106.475C886.52 108.527 887.673 111.31 887.673 114.212V166.723C887.673 169.625 886.52 172.408 884.468 174.46C882.416 176.513 879.632 177.665 876.73 177.665Z" fill="#F1F2F2"/>
<path d="M876.729 177.665H867.52C870.422 177.665 873.205 176.513 875.257 174.46C877.309 172.408 878.462 169.625 878.462 166.723V114.212C878.462 111.31 877.309 108.527 875.257 106.475C873.205 104.422 870.422 103.27 867.52 103.27H876.729C879.631 103.27 882.414 104.422 884.466 106.475C886.518 108.527 887.671 111.31 887.671 114.212V166.723C887.671 169.625 886.518 172.408 884.466 174.46C882.414 176.513 879.631 177.665 876.729 177.665Z" fill="#BCBEC0"/>
<path d="M891.013 114.212V166.723C891.013 170.513 889.508 174.148 886.83 176.829C884.152 179.511 880.519 181.02 876.729 181.024H856.866C855.976 181.024 855.121 180.671 854.491 180.041C853.862 179.411 853.508 178.556 853.508 177.666V103.27C853.508 102.379 853.862 101.525 854.491 100.895C855.121 100.265 855.976 99.9111 856.866 99.9111H876.729C880.519 99.9159 884.152 101.425 886.83 104.106C889.508 106.788 891.013 110.423 891.013 114.212ZM860.171 174.397H876.729C878.743 174.393 880.672 173.59 882.093 172.164C883.515 170.739 884.314 168.808 884.314 166.795V114.212C884.314 112.199 883.515 110.269 882.093 108.843C880.672 107.418 878.743 106.615 876.729 106.61H860.171V174.397Z" fill="#272727"/>
<path d="M796.954 133.173H773.281V147.745H796.954V133.173Z" fill="#BCBEC0"/>
<path d="M796.954 140.468H773.281V147.745H796.954V140.468Z" fill="#F1F2F2"/>
<path d="M800.293 133.19V147.762C800.293 148.203 800.206 148.638 800.037 149.045C799.868 149.451 799.621 149.821 799.308 150.131C798.996 150.441 798.626 150.687 798.219 150.854C797.811 151.021 797.375 151.105 796.935 151.103H773.28C772.839 151.105 772.403 151.021 771.996 150.854C771.588 150.687 771.218 150.441 770.906 150.131C770.594 149.821 770.346 149.451 770.177 149.045C770.008 148.638 769.921 148.203 769.921 147.762V133.19C769.921 132.299 770.275 131.445 770.905 130.815C771.535 130.185 772.389 129.832 773.28 129.832H796.935C797.825 129.832 798.68 130.185 799.31 130.815C799.939 131.445 800.293 132.299 800.293 133.19ZM776.62 144.404H793.594V136.477H776.62V144.404Z" fill="#272727"/>
<path d="M871.061 114.664C870.175 114.664 869.325 115.016 868.698 115.642C868.072 116.269 867.72 117.118 867.72 118.004V162.931C867.686 163.391 867.748 163.854 867.901 164.29C868.054 164.725 868.295 165.125 868.609 165.463C868.924 165.801 869.304 166.071 869.728 166.256C870.151 166.44 870.608 166.535 871.07 166.535C871.531 166.535 871.988 166.44 872.412 166.256C872.835 166.071 873.216 165.801 873.53 165.463C873.844 165.125 874.086 164.725 874.239 164.29C874.392 163.854 874.453 163.391 874.419 162.931V118.004C874.419 117.564 874.332 117.128 874.163 116.722C873.994 116.315 873.747 115.946 873.434 115.636C873.122 115.325 872.752 115.08 872.344 114.913C871.937 114.746 871.501 114.661 871.061 114.664Z" fill="#272727"/>
<path d="M692.112 223.838L666.163 249.787C665.695 250.254 665.376 250.85 665.246 251.498C665.117 252.147 665.183 252.82 665.436 253.431C665.69 254.043 666.119 254.565 666.669 254.932C667.22 255.299 667.867 255.494 668.529 255.493C668.968 255.495 669.403 255.409 669.809 255.242C670.215 255.075 670.584 254.828 670.894 254.518L696.843 228.569C697.47 227.942 697.823 227.091 697.823 226.204C697.823 225.317 697.47 224.466 696.843 223.838C696.215 223.211 695.364 222.858 694.477 222.858C693.59 222.858 692.739 223.211 692.112 223.838Z" fill="#272727"/>
<path d="M731.947 237.598C731.056 237.598 730.201 237.951 729.572 238.581C728.942 239.211 728.588 240.066 728.588 240.956V277.649C728.65 278.495 729.03 279.286 729.651 279.863C730.273 280.44 731.089 280.761 731.937 280.761C732.786 280.761 733.602 280.44 734.224 279.863C734.845 279.286 735.225 278.495 735.287 277.649V240.902C735.278 240.022 734.921 239.182 734.296 238.563C733.671 237.945 732.826 237.598 731.947 237.598Z" fill="#272727"/>
<path d="M771.185 222.429C770.558 221.802 769.707 221.449 768.82 221.449C767.933 221.449 767.082 221.802 766.454 222.429C765.827 223.056 765.475 223.907 765.475 224.795C765.475 225.682 765.827 226.533 766.454 227.16L792.421 253.108C793.053 253.734 793.906 254.084 794.795 254.084C795.684 254.084 796.538 253.734 797.17 253.108C797.794 252.479 798.144 251.629 798.144 250.743C798.144 249.857 797.794 249.006 797.17 248.377L771.185 222.429Z" fill="#272727"/>
<path d="M731.352 43.3921C732.228 43.3779 733.064 43.0197 733.679 42.3947C734.294 41.7698 734.638 40.9282 734.638 40.0515V3.35915C734.672 2.89859 734.61 2.436 734.457 2.00028C734.304 1.56457 734.063 1.16509 733.749 0.826793C733.434 0.488499 733.054 0.218658 732.63 0.0341423C732.207 -0.150373 731.75 -0.245605 731.288 -0.245605C730.827 -0.245605 730.37 -0.150373 729.946 0.0341423C729.523 0.218658 729.142 0.488499 728.828 0.826793C728.514 1.16509 728.272 1.56457 728.119 2.00028C727.966 2.436 727.905 2.89859 727.939 3.35915V40.0515C727.939 40.4964 728.027 40.9367 728.2 41.3468C728.372 41.7569 728.625 42.1284 728.943 42.4396C729.261 42.7508 729.637 42.9953 730.051 43.1589C730.465 43.3224 730.907 43.4017 731.352 43.3921Z" fill="#272727"/>
<path d="M692.113 58.5053C692.74 59.1327 693.591 59.4852 694.478 59.4852C695.365 59.4852 696.216 59.1327 696.844 58.5053C697.471 57.878 697.823 57.0271 697.823 56.1398C697.823 55.2526 697.471 54.4017 696.844 53.7743L670.895 27.8441C670.268 27.2167 669.417 26.8643 668.53 26.8643C667.643 26.8643 666.792 27.2167 666.164 27.8441C665.537 28.4714 665.185 29.3223 665.185 30.2096C665.185 31.0968 665.537 31.9477 666.164 32.5751L692.113 58.5053Z" fill="#272727"/>
<path d="M768.819 58.0898C769.705 58.0896 770.555 57.7391 771.184 57.1147L797.133 31.1664C797.443 30.8557 797.69 30.487 797.858 30.0811C798.026 29.6752 798.113 29.2402 798.113 28.8009C798.113 28.3616 798.026 27.9266 797.858 27.5207C797.69 27.1148 797.443 26.746 797.133 26.4354C796.822 26.1247 796.453 25.8783 796.047 25.7102C795.642 25.5421 795.207 25.4556 794.767 25.4556C794.328 25.4556 793.893 25.5421 793.487 25.7102C793.081 25.8783 792.712 26.1247 792.402 26.4354L766.453 52.3837C765.985 52.8509 765.666 53.4467 765.536 54.0956C765.407 54.7445 765.473 55.4173 765.726 56.0285C765.98 56.6397 766.409 57.162 766.96 57.5289C767.51 57.8959 768.157 58.0911 768.819 58.0898Z" fill="#272727"/>
<path d="M540.901 155.166H596.878V125.787H540.901C539.161 125.785 537.438 126.125 535.83 126.789C534.222 127.454 532.761 128.428 531.53 129.657C530.299 130.887 529.322 132.347 528.656 133.954C527.989 135.561 527.646 137.283 527.646 139.023V141.894C527.644 143.636 527.985 145.362 528.65 146.972C529.315 148.582 530.291 150.045 531.522 151.278C532.753 152.511 534.215 153.488 535.824 154.156C537.434 154.823 539.158 155.166 540.901 155.166Z" fill="#F1F2F2"/>
<path d="M540.901 155.166H596.878V146.138H547.347C545.606 146.138 543.883 145.795 542.275 145.129C540.667 144.463 539.206 143.486 537.975 142.256C536.744 141.025 535.768 139.564 535.102 137.956C534.436 136.348 534.093 134.624 534.093 132.883V129.994C534.095 129.151 534.179 128.311 534.346 127.484C532.314 128.641 530.624 130.313 529.447 132.334C528.271 134.354 527.65 136.649 527.646 138.987V141.894C527.644 143.636 527.985 145.362 528.65 146.972C529.315 148.582 530.291 150.045 531.522 151.278C532.753 152.51 534.215 153.488 535.824 154.156C537.434 154.823 539.158 155.166 540.901 155.166Z" fill="#BCBEC0"/>
<path d="M540.901 122.428H596.879C597.319 122.428 597.755 122.515 598.161 122.684C598.568 122.853 598.937 123.1 599.247 123.413C599.558 123.725 599.804 124.095 599.97 124.502C600.137 124.91 600.222 125.346 600.219 125.786V155.166C600.219 155.604 600.133 156.039 599.965 156.444C599.797 156.849 599.551 157.218 599.241 157.528C598.931 157.838 598.563 158.084 598.157 158.252C597.752 158.42 597.318 158.506 596.879 158.506H540.901C536.502 158.501 532.283 156.751 529.172 153.64C526.061 150.529 524.311 146.311 524.307 141.912V139.022C524.311 134.623 526.061 130.405 529.172 127.293C532.283 124.182 536.502 122.433 540.901 122.428ZM593.61 129.127H540.901C538.278 129.132 535.764 130.176 533.909 132.031C532.055 133.885 531.011 136.399 531.006 139.022V141.893C531.011 144.516 532.055 147.031 533.909 148.885C535.764 150.74 538.278 151.784 540.901 151.789H593.61V129.127Z" fill="#272727"/>
<path d="M588.897 177.665H608.76V103.27H588.897C585.995 103.27 583.211 104.422 581.159 106.475C579.107 108.527 577.954 111.31 577.954 114.212V166.723C577.954 169.625 579.107 172.408 581.159 174.46C583.211 176.513 585.995 177.665 588.897 177.665Z" fill="#F1F2F2"/>
<path d="M588.897 177.665H598.088C595.186 177.665 592.402 176.513 590.35 174.46C588.298 172.408 587.145 169.625 587.145 166.723V114.212C587.145 111.31 588.298 108.527 590.35 106.475C592.402 104.422 595.186 103.27 598.088 103.27H588.897C585.995 103.27 583.211 104.422 581.159 106.475C579.107 108.527 577.954 111.31 577.954 114.212V166.723C577.954 169.625 579.107 172.408 581.159 174.46C583.211 176.513 585.995 177.665 588.897 177.665Z" fill="#BCBEC0"/>
<path d="M588.897 99.9111H608.76C609.651 99.9111 610.505 100.265 611.135 100.895C611.765 101.525 612.119 102.379 612.119 103.27V177.666C612.119 178.556 611.765 179.411 611.135 180.041C610.505 180.671 609.651 181.024 608.76 181.024H588.897C585.106 181.02 581.471 179.511 578.79 176.83C576.109 174.149 574.6 170.515 574.596 166.723V114.212C574.6 110.421 576.109 106.786 578.79 104.105C581.471 101.424 585.106 99.9159 588.897 99.9111ZM605.438 106.61H588.897C586.882 106.615 584.951 107.418 583.527 108.842C582.102 110.267 581.3 112.198 581.295 114.212V166.723C581.3 168.738 582.102 170.669 583.527 172.093C584.951 173.518 586.882 174.32 588.897 174.325H605.438V106.61Z" fill="#272727"/>
<path d="M594.548 114.664C595.434 114.664 596.284 115.016 596.911 115.642C597.537 116.269 597.889 117.118 597.889 118.004V162.931C597.923 163.391 597.861 163.854 597.708 164.29C597.555 164.725 597.314 165.125 597 165.463C596.685 165.801 596.305 166.071 595.881 166.256C595.458 166.44 595.001 166.535 594.539 166.535C594.078 166.535 593.621 166.44 593.197 166.256C592.774 166.071 592.393 165.801 592.079 165.463C591.765 165.125 591.523 164.725 591.37 164.29C591.217 163.854 591.156 163.391 591.19 162.931V118.004C591.19 117.564 591.277 117.128 591.446 116.722C591.615 116.315 591.862 115.946 592.174 115.636C592.487 115.325 592.857 115.08 593.264 114.913C593.672 114.746 594.108 114.661 594.548 114.664Z" fill="#272727"/>
<path d="M679.78 80.0654H622.682C620.865 80.0654 619.064 80.4238 617.385 81.1201C615.706 81.8163 614.18 82.8368 612.895 84.1231C611.611 85.4094 610.592 86.9364 609.898 88.6166C609.204 90.2968 608.848 92.0974 608.851 93.9154V187.037C608.851 190.705 610.308 194.223 612.902 196.817C615.496 199.411 619.014 200.869 622.682 200.869H679.852L679.78 80.0654Z" fill="#F1F2F2"/>
<path d="M682.217 80.0654H662.138V200.85H682.217V80.0654Z" fill="#BCBEC0"/>
<path d="M679.779 204.209H622.682C618.129 204.204 613.764 202.393 610.545 199.174C607.325 195.955 605.515 191.589 605.51 187.037V93.9152C605.515 89.3605 607.325 84.9936 610.544 81.7713C613.763 78.549 618.128 76.7342 622.682 76.7247H679.852C680.292 76.7223 680.728 76.8069 681.135 76.9737C681.543 77.1406 681.913 77.3862 682.225 77.6967C682.538 78.0071 682.785 78.3762 682.954 78.7827C683.123 79.1891 683.21 79.625 683.21 80.0652V200.868C683.21 201.315 683.121 201.757 682.948 202.168C682.774 202.579 682.52 202.952 682.2 203.263C681.88 203.574 681.501 203.819 681.085 203.981C680.67 204.144 680.226 204.221 679.779 204.209ZM622.682 83.4239C619.903 83.4287 617.239 84.5361 615.275 86.5031C613.312 88.4701 612.209 91.1358 612.209 93.9152V187.037C612.209 189.816 613.312 192.482 615.275 194.449C617.239 196.416 619.903 197.523 622.682 197.528H676.511V83.4239H622.682Z" fill="#272727"/>
<path d="M692.329 194.368C692.417 197.124 691.407 199.802 689.521 201.813C687.635 203.825 685.027 205.005 682.271 205.094C679.519 205.009 676.912 203.836 675.024 201.832C673.135 199.828 672.118 197.157 672.196 194.404V86.6025C672.118 83.8498 673.135 81.1785 675.024 79.1746C676.912 77.1706 679.519 75.9976 682.271 75.9126C685.024 75.9976 687.631 77.1706 689.519 79.1746C691.408 81.1785 692.425 83.8498 692.347 86.6025L692.329 194.368Z" fill="#F1F2F2"/>
<path d="M682.271 75.877C680.49 75.8755 678.744 76.3762 677.233 77.3215C678.79 78.3071 680.069 79.6733 680.951 81.2911C681.833 82.9088 682.287 84.7246 682.271 86.5669V194.369C682.287 196.211 681.833 198.027 680.951 199.645C680.069 201.262 678.79 202.628 677.233 203.614C678.744 204.559 680.49 205.06 682.271 205.059C685.024 204.974 687.63 203.801 689.519 201.797C691.408 199.793 692.425 197.121 692.347 194.369V86.5669C692.425 83.8141 691.408 81.1429 689.519 79.1389C687.63 77.135 685.024 75.9619 682.271 75.877Z" fill="#BCBEC0"/>
<path d="M682.271 208.399C678.631 208.314 675.173 206.789 672.655 204.159C670.137 201.529 668.764 198.009 668.836 194.368V86.5664C668.742 84.7436 669.019 82.9206 669.652 81.2083C670.284 79.4961 671.259 77.9305 672.515 76.6068C673.772 75.2831 675.285 74.2291 676.962 73.5088C678.64 72.7885 680.446 72.417 682.271 72.417C684.096 72.417 685.903 72.7885 687.58 73.5088C689.257 74.2291 690.77 75.2831 692.027 76.6068C693.284 77.9305 694.258 79.4961 694.89 81.2083C695.523 82.9206 695.8 84.7436 695.706 86.5664V194.368C695.778 198.009 694.405 201.529 691.887 204.159C689.369 206.789 685.911 208.314 682.271 208.399ZM682.271 79.2352C680.408 79.3196 678.653 80.138 677.391 81.5117C676.129 82.8853 675.462 84.7025 675.536 86.5664V194.368C675.468 195.294 675.592 196.224 675.899 197.1C676.207 197.976 676.692 198.779 677.324 199.459C677.956 200.14 678.722 200.682 679.573 201.053C680.424 201.424 681.343 201.615 682.271 201.615C683.199 201.615 684.118 201.424 684.969 201.053C685.82 200.682 686.586 200.14 687.218 199.459C687.85 198.779 688.335 197.976 688.643 197.1C688.95 196.224 689.074 195.294 689.006 194.368V86.5664C689.08 84.7025 688.413 82.8853 687.151 81.5117C685.889 80.138 684.134 79.3196 682.271 79.2352Z" fill="#272727"/>
<path d="M652.893 159.445H629.725C628.839 159.445 627.99 159.797 627.363 160.424C626.737 161.05 626.385 161.9 626.385 162.786C626.385 163.672 626.737 164.522 627.363 165.148C627.99 165.775 628.839 166.126 629.725 166.126H652.893C653.779 166.126 654.629 165.775 655.255 165.148C655.881 164.522 656.233 163.672 656.233 162.786C656.233 161.9 655.881 161.05 655.255 160.424C654.629 159.797 653.779 159.445 652.893 159.445Z" fill="#272727"/>
<path d="M629.725 151.248H652.893C653.779 151.248 654.629 150.896 655.255 150.269C655.881 149.643 656.233 148.793 656.233 147.907C656.233 147.021 655.881 146.171 655.255 145.545C654.629 144.918 653.779 144.566 652.893 144.566H629.725C628.839 144.566 627.99 144.918 627.363 145.545C626.737 146.171 626.385 147.021 626.385 147.907C626.385 148.793 626.737 149.643 627.363 150.269C627.99 150.896 628.839 151.248 629.725 151.248Z" fill="#272727"/>
<path d="M629.725 136.368H652.893C653.779 136.368 654.629 136.016 655.255 135.39C655.881 134.763 656.233 133.914 656.233 133.028C656.233 132.142 655.881 131.292 655.255 130.665C654.629 130.039 653.779 129.687 652.893 129.687H629.725C628.839 129.687 627.99 130.039 627.363 130.665C626.737 131.292 626.385 132.142 626.385 133.028C626.385 133.914 626.737 134.763 627.363 135.39C627.99 136.016 628.839 136.368 629.725 136.368Z" fill="#272727"/>
<path d="M629.724 121.508H652.891C653.352 121.541 653.815 121.48 654.25 121.327C654.686 121.174 655.085 120.933 655.424 120.618C655.762 120.304 656.032 119.923 656.216 119.5C656.401 119.077 656.496 118.62 656.496 118.158C656.496 117.696 656.401 117.239 656.216 116.816C656.032 116.393 655.762 116.012 655.424 115.698C655.085 115.383 654.686 115.142 654.25 114.989C653.815 114.836 653.352 114.775 652.891 114.808H629.724C629.263 114.775 628.801 114.836 628.365 114.989C627.929 115.142 627.53 115.383 627.192 115.698C626.853 116.012 626.583 116.393 626.399 116.816C626.214 117.239 626.119 117.696 626.119 118.158C626.119 118.62 626.214 119.077 626.399 119.5C626.583 119.923 626.853 120.304 627.192 120.618C627.53 120.933 627.929 121.174 628.365 121.327C628.801 121.48 629.263 121.541 629.724 121.508Z" fill="#272727"/>
</g>
<defs>
<clipPath id="clip0_774_51512">
<rect width="1440" height="281.25" fill="white"/>
</clipPath>
</defs>
</svg>
