<svg width="25" height="25" viewBox="0 0 25 25" fill="none" xmlns="http://www.w3.org/2000/svg">
<path fill-rule="evenodd" clip-rule="evenodd" d="M12.5 0C19.4036 0 25 5.59644 25 12.5C25 19.4036 19.4036 25 12.5 25C5.59644 25 0 19.4036 0 12.5C0 5.59644 5.59644 0 12.5 0ZM12.4995 16C9.70983 16 7.14247 16.5001 5.1046 18.5508C4.76205 18.8955 4.64436 19.4878 5.01664 19.866C6.92119 21.8006 9.57028 23.0001 12.4995 23.0001C15.4292 23.0001 18.0786 21.8003 19.9834 19.8645C20.3557 19.4861 20.2377 18.8939 19.8948 18.5491C17.8569 16.5001 15.2894 16 12.4995 16ZM8.5 9C8.5 6.79086 10.2909 5 12.5 5C14.7091 5 16.5 6.79086 16.5 9C16.5 11.2091 14.7091 13 12.5 13C10.2909 13 8.5 11.2091 8.5 9Z" fill="#545458" fill-opacity="0.65"/>
</svg>
