<svg width="207" height="50" viewBox="0 0 207 50" fill="none" xmlns="http://www.w3.org/2000/svg">
<path d="M0.722656 13.5C0.722656 12.9477 1.17037 12.5 1.72266 12.5H101.295C102.012 12.5 102.496 13.2312 102.216 13.8906L87.1515 49.3906C86.9947 49.7601 86.6322 50 86.2309 50H1.72266C1.17037 50 0.722656 49.5523 0.722656 49V13.5Z" fill="white"/>
<path d="M0.722656 13.5C0.722656 12.9477 1.17037 12.5 1.72266 12.5H101.295C102.012 12.5 102.496 13.2312 102.216 13.8906L87.1515 49.3906C86.9947 49.7601 86.6322 50 86.2309 50H1.72266C1.17037 50 0.722656 49.5523 0.722656 49V13.5Z" fill="url(#paint0_linear_170_18612)"/>
<g filter="url(#filter0_b_170_18612)">
<path d="M206.278 36.5C206.278 37.0523 205.831 37.5 205.278 37.5H82.8189C82.0948 37.5 81.6107 36.7543 81.9056 36.0929L97.7298 0.592865C97.8905 0.232273 98.2483 0 98.6431 0H205.278C205.831 0 206.278 0.447716 206.278 1V36.5Z" fill="#1C1C1C"/>
<path d="M206.028 36.5C206.028 36.9142 205.693 37.25 205.278 37.25H82.8189C82.2758 37.25 81.9128 36.6907 82.1339 36.1946L97.9581 0.694649C98.0786 0.424202 98.347 0.25 98.6431 0.25H205.278C205.693 0.25 206.028 0.585789 206.028 1V36.5Z" stroke="url(#paint1_linear_170_18612)" stroke-width="0.5"/>
</g>
<path d="M23.5687 19.4443H29.1975C29.4255 19.4443 29.6225 19.529 29.7883 19.6983C29.9542 19.8676 30.0371 20.0687 30.0371 20.3015V40.8094C30.0371 41.0422 29.9542 41.2433 29.7883 41.4126C29.6225 41.5819 29.4255 41.6666 29.1975 41.6666H24.284C23.7449 41.6666 23.3199 41.4232 23.0089 40.9364L17.7534 32.8412V40.8094C17.7534 41.0422 17.6704 41.2433 17.5046 41.4126C17.3387 41.5819 17.1418 41.6666 16.9137 41.6666H11.285C11.0569 41.6666 10.86 41.5819 10.6941 41.4126C10.5282 41.2433 10.4453 41.0422 10.4453 40.8094V20.3015C10.4453 20.0687 10.5282 19.8676 10.6941 19.6983C10.86 19.529 11.0569 19.4443 11.285 19.4443H16.1985C16.779 19.4443 17.204 19.6877 17.4735 20.1745L22.7291 28.9681V20.3015C22.7291 20.0687 22.812 19.8676 22.9778 19.6983C23.1437 19.529 23.3406 19.4443 23.5687 19.4443Z" fill="white"/>
<path d="M41.5361 35.4761H51.1143C51.3424 35.4761 51.5393 35.5607 51.7052 35.73C51.871 35.8994 51.954 36.1004 51.954 36.3332V40.8094C51.954 41.0422 51.871 41.2433 51.7052 41.4126C51.5393 41.5819 51.3424 41.6666 51.1143 41.6666H34.9122C34.6842 41.6666 34.4872 41.5819 34.3213 41.4126C34.1555 41.2433 34.0726 41.0422 34.0726 40.8094V20.3015C34.0726 20.0687 34.1555 19.8676 34.3213 19.6983C34.4872 19.529 34.6842 19.4443 34.9122 19.4443H50.8655C51.0936 19.4443 51.2905 19.529 51.4564 19.6983C51.6222 19.8676 51.7052 20.0687 51.7052 20.3015V24.7777C51.7052 25.0105 51.6222 25.2115 51.4564 25.3808C51.2905 25.5502 51.0936 25.6348 50.8655 25.6348H41.5361V27.6348H50.1814C50.4094 27.6348 50.6064 27.7195 50.7722 27.8888C50.9381 28.0581 51.021 28.2592 51.021 28.492V32.6189C51.021 32.8517 50.9381 33.0528 50.7722 33.2221C50.6064 33.3914 50.4094 33.4761 50.1814 33.4761H41.5361V35.4761Z" fill="white"/>
<path d="M63.5011 41.6666H59.054C58.6601 41.6666 58.3284 41.5502 58.0589 41.3174C57.8101 41.0634 57.665 40.7777 57.6235 40.4602L54.7625 20.238V20.1427C54.7625 19.9523 54.8247 19.7935 54.9491 19.6666C55.0942 19.5184 55.2601 19.4443 55.4467 19.4443H61.2309C61.9151 19.4443 62.2882 19.7301 62.3504 20.3015L63.4078 29.2539L64.6828 25.2856C64.8901 24.6718 65.2426 24.365 65.7401 24.365H68.9121C69.4097 24.365 69.7621 24.6718 69.9695 25.2856L71.2445 29.2221L72.3018 20.3015C72.364 19.7301 72.7372 19.4443 73.4213 19.4443H79.2056C79.3922 19.4443 79.5477 19.5184 79.6721 19.6666C79.8172 19.7935 79.8898 19.9523 79.8898 20.1427V20.238L77.0287 40.4602C76.9873 40.7777 76.8318 41.0634 76.5623 41.3174C76.3135 41.5502 75.9921 41.6666 75.5982 41.6666H71.1512C70.5085 41.6666 70.0835 41.3808 69.8762 40.8094L67.3261 34.3015L64.7761 40.8094C64.5688 41.3808 64.1438 41.6666 63.5011 41.6666Z" fill="white"/>
<path d="M99.8499 15.432C99.8499 13.3333 100.7 11.6254 102.399 10.3086C104.119 8.99169 106.365 8.33325 109.137 8.33325C111.929 8.33325 114.205 9.02255 115.965 10.4012C117.746 11.7798 118.636 13.2201 118.636 14.7221C118.636 14.9073 118.565 15.0719 118.423 15.216C118.302 15.3394 118.16 15.4012 117.999 15.4012H111.929C111.463 15.4012 111.039 15.2263 110.654 14.8765C110.27 14.5267 109.754 14.3518 109.106 14.3518C108.135 14.3518 107.65 14.6398 107.65 15.216C107.65 15.5246 107.882 15.7818 108.348 15.9876C108.833 16.1933 109.723 16.3785 111.018 16.5431C114.033 16.9341 116.178 17.6542 117.452 18.7036C118.747 19.7324 119.395 21.3065 119.395 23.4258C119.395 25.5246 118.444 27.2427 116.542 28.5802C114.66 29.897 112.192 30.5555 109.137 30.5555C106.082 30.5555 103.684 29.9176 101.944 28.6419C100.204 27.3662 99.334 25.8127 99.334 23.9814C99.334 23.7962 99.3947 23.6419 99.5161 23.5184C99.6577 23.3744 99.8196 23.3024 100.002 23.3024H105.768C106.193 23.3024 106.658 23.5081 107.164 23.9197C107.69 24.3312 108.408 24.537 109.319 24.537C110.836 24.537 111.595 24.2489 111.595 23.6728C111.595 23.3024 111.322 23.0246 110.776 22.8394C110.229 22.6337 109.197 22.4279 107.68 22.2221C102.46 21.5226 99.8499 19.2592 99.8499 15.432Z" fill="white"/>
<path d="M135.592 8.64189H141.54C141.763 8.64189 141.955 8.7242 142.117 8.88881C142.279 9.05342 142.36 9.24889 142.36 9.47523V29.4135C142.36 29.6398 142.279 29.8353 142.117 29.9999C141.955 30.1645 141.763 30.2468 141.54 30.2468H135.592C135.369 30.2468 135.177 30.1645 135.015 29.9999C134.854 29.8353 134.773 29.6398 134.773 29.4135V22.7468H129.856V29.4135C129.856 29.6398 129.775 29.8353 129.613 29.9999C129.451 30.1645 129.259 30.2468 129.037 30.2468H123.088C122.866 30.2468 122.673 30.1748 122.512 30.0308C122.35 29.8662 122.269 29.6604 122.269 29.4135V9.47523C122.269 9.24889 122.35 9.05342 122.512 8.88881C122.673 8.7242 122.866 8.64189 123.088 8.64189H129.037C129.259 8.64189 129.451 8.7242 129.613 8.88881C129.775 9.05342 129.856 9.24889 129.856 9.47523V15.9567H134.773V9.47523C134.773 9.24889 134.854 9.05342 135.015 8.88881C135.177 8.7242 135.369 8.64189 135.592 8.64189Z" fill="white"/>
<path d="M153.316 30.2468H147.124C146.902 30.2468 146.71 30.1645 146.548 29.9999C146.386 29.8353 146.305 29.6398 146.305 29.4135V9.47523C146.305 9.24889 146.386 9.05342 146.548 8.88881C146.71 8.7242 146.902 8.64189 147.124 8.64189H153.316C153.538 8.64189 153.73 8.7242 153.892 8.88881C154.054 9.05342 154.135 9.24889 154.135 9.47523V29.4135C154.135 29.6398 154.054 29.8353 153.892 29.9999C153.73 30.1645 153.538 30.2468 153.316 30.2468Z" fill="white"/>
<path d="M158.891 8.64189H174.186C174.409 8.64189 174.601 8.7242 174.763 8.88881C174.925 9.05342 175.006 9.24889 175.006 9.47523V14.1666C175.006 14.3929 174.925 14.5884 174.763 14.753C174.601 14.9176 174.409 14.9999 174.186 14.9999H165.507V17.2839H173.579C173.802 17.2839 173.994 17.3662 174.156 17.5308C174.318 17.6954 174.399 17.8909 174.399 18.1172V22.7777C174.399 23.004 174.318 23.1995 174.156 23.3641C173.994 23.5287 173.802 23.611 173.579 23.611H165.507V29.4135C165.507 29.6398 165.426 29.8353 165.264 29.9999C165.102 30.1645 164.91 30.2468 164.687 30.2468H158.891C158.668 30.2468 158.476 30.1645 158.314 29.9999C158.152 29.8353 158.071 29.6398 158.071 29.4135V9.47523C158.071 9.24889 158.152 9.05342 158.314 8.88881C158.476 8.7242 158.668 8.64189 158.891 8.64189Z" fill="white"/>
<path d="M177.952 8.64189H195.737C195.959 8.64189 196.152 8.7242 196.313 8.88881C196.475 9.05342 196.556 9.24889 196.556 9.47523V14.4444C196.556 14.6707 196.475 14.8662 196.313 15.0308C196.152 15.1954 195.959 15.2777 195.737 15.2777H190.699V29.4135C190.699 29.6398 190.618 29.8353 190.456 29.9999C190.294 30.1645 190.102 30.2468 189.879 30.2468H183.81C183.587 30.2468 183.395 30.1645 183.233 29.9999C183.071 29.8353 182.99 29.6398 182.99 29.4135V15.2777H177.952C177.73 15.2777 177.538 15.1954 177.376 15.0308C177.214 14.8662 177.133 14.6707 177.133 14.4444V9.47523C177.133 9.24889 177.214 9.05342 177.376 8.88881C177.538 8.7242 177.73 8.64189 177.952 8.64189Z" fill="white"/>
<defs>
<filter id="filter0_b_170_18612" x="31.8174" y="-50" width="224.461" height="137.5" filterUnits="userSpaceOnUse" color-interpolation-filters="sRGB">
<feFlood flood-opacity="0" result="BackgroundImageFix"/>
<feGaussianBlur in="BackgroundImageFix" stdDeviation="25"/>
<feComposite in2="SourceAlpha" operator="in" result="effect1_backgroundBlur_170_18612"/>
<feBlend mode="normal" in="SourceGraphic" in2="effect1_backgroundBlur_170_18612" result="shape"/>
</filter>
<linearGradient id="paint0_linear_170_18612" x1="13.8818" y1="8.72713" x2="36.2284" y2="97.1249" gradientUnits="userSpaceOnUse">
<stop stop-color="#5285ED"/>
<stop offset="1" stop-color="#4AB3FF"/>
</linearGradient>
<linearGradient id="paint1_linear_170_18612" x1="202.762" y1="-19.9211" x2="151.824" y2="53.0217" gradientUnits="userSpaceOnUse">
<stop stop-color="white"/>
<stop offset="1" stop-color="white" stop-opacity="0"/>
</linearGradient>
</defs>
</svg>
