<svg width="23" height="23" viewBox="0 0 23 23" fill="none" xmlns="http://www.w3.org/2000/svg">
<path d="M5.47541 7.54098C5.47541 6.4002 6.4002 5.47541 7.54098 5.47541H8.22951C9.37029 5.47541 10.2951 6.4002 10.2951 7.54098V8.22951C10.2951 9.37029 9.37029 10.2951 8.22951 10.2951H7.54098C6.4002 10.2951 5.47541 9.37029 5.47541 8.22951V7.54098Z" stroke="#8E959B" stroke-width="1.5"/>
<path d="M5.47541 14.7705C5.47541 13.6297 6.4002 12.7049 7.54098 12.7049H8.22951C9.37029 12.7049 10.2951 13.6297 10.2951 14.7705V15.459C10.2951 16.5998 9.37029 17.5246 8.22951 17.5246H7.54098C6.4002 17.5246 5.47541 16.5998 5.47541 15.459V14.7705Z" stroke="#8E959B" stroke-width="1.5"/>
<path d="M12.7049 7.54098C12.7049 6.4002 13.6297 5.47541 14.7705 5.47541H15.459C16.5998 5.47541 17.5246 6.4002 17.5246 7.54098V8.22951C17.5246 9.37029 16.5998 10.2951 15.459 10.2951H14.7705C13.6297 10.2951 12.7049 9.37029 12.7049 8.22951V7.54098Z" stroke="#8E959B" stroke-width="1.5"/>
<path d="M12.7049 14.7705C12.7049 13.6297 13.6297 12.7049 14.7705 12.7049H15.459C16.5998 12.7049 17.5246 13.6297 17.5246 14.7705V15.459C17.5246 16.5998 16.5998 17.5246 15.459 17.5246H14.7705C13.6297 17.5246 12.7049 16.5998 12.7049 15.459V14.7705Z" stroke="#8E959B" stroke-width="1.5"/>
</svg>
