<svg width="29" height="26" viewBox="0 0 29 26" fill="none" xmlns="http://www.w3.org/2000/svg">
<path fill-rule="evenodd" clip-rule="evenodd" d="M12.1211 21.4538C18.4743 20.9331 23.4991 16.0333 23.4991 9.99959C23.4991 7.53069 22.6578 5.25164 21.2284 3.38477C25.7275 4.50175 28.9988 7.98459 28.9988 12.9996C28.9988 15.677 27.9873 17.9132 25.9644 19.7081C25.7444 19.9033 25.5512 20.1268 25.3899 20.3727C24.4167 21.8563 24.7809 23.8298 26.1876 24.8738L26.3482 24.9859L26.0881 25.033C24.0157 25.3643 22.1421 24.6022 20.4677 22.7467C19.674 22.9122 18.8477 22.9996 17.9988 22.9996C15.8373 22.9996 13.8214 22.4328 12.1211 21.4538Z" fill="#6A8CEB"/>
<path fill-rule="evenodd" clip-rule="evenodd" d="M11 0C17.0751 0 22 4.47715 22 10C22 15.5228 17.0751 20 11 20C10.1511 20 9.32475 19.9126 8.5311 19.7471C6.7869 21.6799 4.82667 22.4264 2.6506 21.9863C4.49443 20.7768 4.3712 17.7738 2.813 16.2135C1.31385 14.7122 0 12.6427 0 10C0 3.84667 4.92487 0 11 0Z" fill="#6A8CEB"/>
</svg>
