<svg width="5" height="5" viewBox="0 0 5 5" fill="none" xmlns="http://www.w3.org/2000/svg">
<path d="M2.00003 0.0866667C2.03257 0.123735 2.05251 0.169099 2.05726 0.216898C2.06201 0.264697 2.05137 0.312734 2.0267 0.354803C1.83398 0.686528 1.73334 1.05836 1.73403 1.4361C1.73403 2.69271 2.82672 3.71026 4.17341 3.71026C4.34907 3.71026 4.52008 3.69307 4.68441 3.66025C4.73479 3.65003 4.78726 3.65394 4.83528 3.6715C4.8833 3.68906 4.92474 3.7195 4.95442 3.75901C4.98575 3.80009 5.00172 3.84972 4.99985 3.90019C4.99798 3.95066 4.97838 3.99914 4.94409 4.03808C4.68264 4.33917 4.35282 4.58176 3.97868 4.74817C3.60454 4.91458 3.19549 5.00061 2.78138 5C1.24469 5 0 3.83932 0 2.40926C0 1.33297 0.704679 0.409805 1.70803 0.0185389C1.75801 -0.00126449 1.81349 -0.00532905 1.86615 0.00695579C1.9188 0.0192406 1.96578 0.0472115 2.00003 0.0866667Z" fill="white"/>
</svg>
