<svg width="27" height="27" viewBox="0 0 27 27" fill="none" xmlns="http://www.w3.org/2000/svg">
<path d="M9.54462 4.87552L9.99698 8.52214C10.0603 9.03222 9.8863 9.54315 9.52557 9.90664L8.29854 11.1431C7.81809 11.6272 7.77985 12.3993 8.21011 12.9292L9.36271 14.3488C10.0689 15.2185 10.8996 15.9775 11.8275 16.6008L13.4612 17.6983C14 18.0603 14.7198 17.9758 15.1616 17.4987L16.3379 16.2288C16.5695 15.9787 16.9121 15.8654 17.2458 15.9284L21.1909 16.6738C21.66 16.7624 22 17.1752 22 17.6561V21.0363C22 21.5704 21.5867 22.0129 21.0569 21.9997C15.0191 21.8488 4.52276 17.8144 4.00081 5.0046C3.97834 4.45307 4.42468 4 4.97249 4H8.56039C9.06063 4 9.48257 4.37535 9.54462 4.87552Z" fill="#868686"/>
</svg>
