<svg width="21" height="21" viewBox="0 0 21 21" fill="none" xmlns="http://www.w3.org/2000/svg">
<path d="M0.00160215 0.984375C0.00160215 0.65625 0.00160205 1.43295e-05 1.16548 0C2.6619 -1.84236e-05 19.2888 8.53125 20.4527 9.51562C21.3838 10.3031 20.9499 11.1562 20.4511 11.4844C19.2875 12.4685 2.50289 20.9949 1.16388 21C0 21 0 20.3437 0 20.0156L1.16505 12.7969C1.29771 12.0094 1.66401 11.8125 1.83057 11.8125L11.8067 10.8281C11.9175 10.8281 12.1392 10.7625 12.1392 10.5C12.1392 10.2375 11.9175 10.1719 11.8067 10.1719L1.83057 9.1875C1.66401 9.1875 1.29771 8.99062 1.16505 8.20312C0.775612 5.82365 0.00160215 1.3125 0.00160215 0.984375Z" fill="#6A8CEB"/>
</svg>
