<svg width="16" height="16" viewBox="0 0 16 16" fill="none" xmlns="http://www.w3.org/2000/svg">
<path d="M6.76841 1.51761L7.56013 1.8292C7.84256 1.94035 8.15661 1.94035 8.43903 1.8292L9.23076 1.51761C10.1998 1.13624 11.2969 1.59065 11.7125 2.54557L12.052 3.32572C12.1731 3.60402 12.3951 3.82609 12.6734 3.9472L13.4536 4.28671C14.4085 4.70228 14.8629 5.79933 14.4816 6.76841L14.17 7.56013C14.0588 7.84256 14.0588 8.15661 14.17 8.43903L14.4816 9.23076C14.8629 10.1998 14.4085 11.2969 13.4536 11.7125L12.6734 12.052C12.3951 12.1731 12.1731 12.3951 12.052 12.6734L11.7125 13.4536C11.2969 14.4085 10.1998 14.8629 9.23076 14.4816L8.43903 14.17C8.15661 14.0588 7.84256 14.0588 7.56013 14.17L6.76841 14.4816C5.79933 14.8629 4.70228 14.4085 4.28671 13.4536L3.9472 12.6734C3.82609 12.3951 3.60402 12.1731 3.32572 12.052L2.54557 11.7125C1.59065 11.2969 1.13624 10.1998 1.51761 9.23076L1.8292 8.43903C1.94035 8.15661 1.94035 7.84256 1.8292 7.56013L1.51761 6.76841C1.13624 5.79933 1.59065 4.70228 2.54557 4.28671L3.32572 3.9472C3.60402 3.82609 3.82609 3.60402 3.9472 3.32572L4.28671 2.54557C4.70228 1.59065 5.79933 1.13624 6.76841 1.51761ZM10.0674 6.13384L7.14924 9.41677L5.84921 8.11674C5.693 7.96053 5.43973 7.96053 5.28352 8.11674C5.12731 8.27295 5.12731 8.52622 5.28352 8.68243L6.88352 10.2824C7.04626 10.4452 7.31243 10.4373 7.46533 10.2653L10.6653 6.66533C10.8121 6.50022 10.7972 6.24739 10.6321 6.10062C10.467 5.95385 10.2142 5.96872 10.0674 6.13384Z" fill="#6A8CEB"/>
<path d="M10.0671 6.13426L7.14889 9.41719L5.84886 8.11716C5.69265 7.96095 5.43938 7.96095 5.28317 8.11716C5.12696 8.27337 5.12696 8.52664 5.28317 8.68285L6.88317 10.2828C7.04591 10.4456 7.31208 10.4378 7.46498 10.2657L10.665 6.66575C10.8117 6.50064 10.7969 6.24781 10.6318 6.10104C10.4666 5.95427 10.2138 5.96915 10.0671 6.13426Z" fill="white"/>
</svg>
