<svg width="8" height="8" viewBox="0 0 8 8" fill="none" xmlns="http://www.w3.org/2000/svg">
<path d="M2.73116 4.47948C2.73116 5.44394 3.51572 6.2285 4.48018 6.2285C5.44464 6.2285 6.2292 5.44394 6.2292 4.47948C6.2292 3.51502 5.44464 2.73046 4.48018 2.73046C3.51572 2.73046 2.73116 3.51502 2.73116 4.47948ZM4.13016 6.92468H4.82879V7.97263H4.13016V6.92468ZM4.13016 0.986328H4.82879V2.03427H4.13016V0.986328ZM0.986328 4.13016H2.03427V4.82879H0.986328V4.13016ZM6.92468 4.13016H7.97263V4.82879H6.92468V4.13016Z" fill="white"/>
<path d="M2.25858 7.19674L1.76465 6.70281L2.50555 5.96191L2.99948 6.45585L2.25858 7.19674Z" fill="white"/>
<path d="M5.96045 2.50297L6.7017 1.76172L7.19563 2.25565L6.45438 2.9969L5.96045 2.50297Z" fill="white"/>
<path d="M2.50555 2.99787L1.76465 2.25663L2.25893 1.7627L2.99948 2.50394L2.50555 2.99787Z" fill="white"/>
<path d="M7.19563 6.70316L6.7017 7.19709L5.96045 6.45585L6.45438 5.96191L7.19563 6.70316Z" fill="white"/>
</svg>
